<?xml version="1.0" encoding="UTF-8" standalone="no"?>
<svg xmlns="http://www.w3.org/2000/svg" viewBox="136 114 722 722" width="722" height="722">
  <defs>
    <linearGradient id="logoGrad" x1="0%" y1="0%" x2="100%" y2="100%">
      <stop offset="0%" style="stop-color:#22d3ee"/>
      <stop offset="50%" style="stop-color:#0ba5ec"/>
      <stop offset="100%" style="stop-color:#a855f7"/>
    </linearGradient>
    <filter id="glow" x="-50%" y="-50%" width="200%" height="200%">
      <feGaussianBlur stdDeviation="8" result="coloredBlur"/>
      <feMerge>
        <feMergeNode in="coloredBlur"/>
        <feMergeNode in="SourceGraphic"/>
      </feMerge>
    </filter>
    <filter id="glowStrong" x="-50%" y="-50%" width="200%" height="200%">
      <feGaussianBlur stdDeviation="15" result="coloredBlur"/>
      <feMerge>
        <feMergeNode in="coloredBlur"/>
        <feMergeNode in="coloredBlur"/>
        <feMergeNode in="SourceGraphic"/>
      </feMerge>
    </filter>
  </defs>
  <g stroke="none" fill="none" filter="url(#glow)">
    <path d="M 431.5 339.25 C 439.2613 344.6584 441.4004 353.0833 443 362 C 443.8015 368.1324 444.25044 374.26597 444.5725 380.4397 C 444.6214 381.33927 444.67034 382.23884 444.72073 383.16566 C 444.8809 386.1324 445.0367 389.09937 445.1914 392.0664 C 445.24565 393.1015 445.2999 394.1366 445.3558 395.20305 C 445.6445 400.72414 445.9294 406.2454 446.21167 411.76685 C 446.4404 416.22786 446.67606 420.6884 446.9187 425.1487 C 448.61907 456.4604 449.33937 487.6427 449 519 C 452.84275 515.2657 455.76196 511.5221 458.5 506.9375 C 462.2205 500.82 466.04814 494.7813 469.96094 488.78516 C 470.5211 487.9252 471.0813 487.0652 471.6584 486.1792 C 478.11986 476.2681 484.6152 466.37935 491.125 456.5 C 491.75285 455.547 492.3807 454.594 493.0276 453.6121 C 502.91303 438.6141 512.89104 423.68544 523.03955 408.86426 C 524.9047 406.1392 526.76395 403.4102 528.6211 400.6797 C 531.73234 396.10935 534.85824 391.5494 538 387 C 538.5058 386.2675 539.0116 385.535 539.5327 384.78027 C 565.8872 346.73033 565.8872 346.73033 582 338 C 582.59555 337.66355 583.1911 337.3271 583.8047 336.98047 C 590.9396 333.62736 600.2614 333.7516 607.7578 335.72656 C 609.9948 336.65927 611.9611 337.69355 614 339 C 614.57234 339.36223 615.1447 339.72445 615.7344 340.09766 C 620.871 343.84843 623.0512 349.15365 625 355 C 626.1418 370.69976 622.0076 385.82954 618 400.875 C 617.6975 402.02105 617.6975 402.02105 617.38895 403.19025 C 611.9458 423.7682 605.97 444.202 600.041 464.64404 C 592.99566 488.93606 586.0064 513.2441 579.50314 537.6879 C 576.0255 550.74994 572.40246 563.74764 568.4236 576.66724 C 565.7411 585.47016 564.8009 593.5727 564.75 602.75 C 564.7294 603.6949 564.70875 604.6398 564.6875 605.6133 C 564.68234 606.5195 564.6772 607.4257 564.6719 608.3594 C 564.65786 609.58866 564.65786 609.58866 564.64355 610.8428 C 565.0837 613.50656 565.8855 614.37294 568 616 C 572.44014 616.9388 576.142 616.4206 580.1875 614.4375 C 592.9241 603.3991 598.1251 587.41945 602.1367 571.4961 C 606.90976 552.59744 614.0601 538.23524 624.9326 522.09863 C 628.36784 516.94985 631.67945 511.7232 635 506.5 C 640.1627 498.40716 645.3686 490.34476 650.625 482.3125 C 656.15024 473.8682 661.5994 465.37885 667.0056 456.8579 C 672.7163 447.8595 678.5088 438.91545 684.3135 429.97754 C 685.6473 427.92304 686.9802 425.86797 688.3125 423.8125 C 688.758 423.1252 689.2036 422.4379 689.6626 421.72974 C 693.4981 415.8006 697.2808 409.83853 701.0625 403.875 C 706.5869 395.16635 712.2243 386.54384 718 378 C 721.3764 378.65204 723.8331 379.9435 726.7539 381.7383 C 728.1467 382.58967 728.1467 382.58967 729.5676 383.45825 C 730.5559 384.07015 731.5442 384.68206 732.5625 385.3125 C 733.5772 385.93536 734.592 386.5582 735.63745 387.19995 C 743.2074 391.8584 750.737 396.5808 758.2346 401.35474 C 758.968 401.8216 759.7014 402.2885 760.457 402.76953 C 761.0962 403.1779 761.7353 403.5863 762.3938 404.0071 C 764.0355 405.0552 764.0355 405.0552 766 406 C 764.2919 411.0535 761.4257 415.2935 758.5625 419.75 C 757.76115 421.00756 757.76115 421.00756 756.9436 422.29053 C 755.30115 424.86387 753.652 427.4328 752 430 C 751.27635 431.12487 751.27635 431.12487 750.5381 432.27246 C 747.3707 437.1894 744.187 442.09574 741 447 C 734.9556 456.30546 728.95 465.63383 723 475 C 717.05 484.3662 711.04296 493.6936 705 503 C 703.2697 505.66596 701.5406 508.33264 699.8125 511 C 699.3692 511.6839 698.92595 512.36786 698.4692 513.0725 C 695.7109 517.33513 692.9708 521.6089 690.2422 525.8906 C 657.13994 577.8336 657.13994 577.8336 636.45874 593.7539 C 624.4811 602.98064 613.2683 613.16244 602.3008 623.5586 C 590.8944 634.2323 578.88144 644.6982 562.5625 645.5 C 551.53597 645.022 541.8865 641.2433 534.3242 633.22266 C 524.8259 621.6974 524.1708 607.24714 525 593 C 527.0797 573.3837 533.2341 554.0677 538.33723 535.07723 C 539.06995 532.34725 539.7995 529.6164 540.52795 526.8853 C 547.1093 502.2138 553.8038 477.5736 560.66356 452.978 C 561.23655 450.9232 561.8086 448.8682 562.38065 446.81317 C 565.7302 434.7923 569.1309 422.78997 572.7676 410.85254 C 572.9997 410.0905 573.2318 409.3284 573.4709 408.54327 C 574.6025 404.83473 575.74114 401.12856 576.8897 397.42526 C 577.29985 396.09227 577.71 394.75927 578.1201 393.42627 C 578.4834 392.25597 578.8466 391.08567 579.2209 389.8799 C 580.1306 387.0146 580.1306 387.0146 580 384 C 572.2698 390.6793 566.7048 399.04366 560.8782 407.34204 C 559.0849 409.8799 557.26906 412.4007 555.4507 414.9206 C 549.936 422.58054 544.7047 430.3991 539.5625 438.3125 C 538.7194 439.60466 537.87606 440.89665 537.0325 442.1885 C 533.2934 447.91835 529.56947 453.65784 525.86914 459.41284 C 513.13226 479.21553 500.19226 498.9734 486.3994 518.0591 C 484.82713 520.23976 483.26896 522.4302 481.71094 524.6211 C 457.56025 558.4799 457.56025 558.4799 441 564 C 432.40093 565.0928 424.97274 562.2392 417.5625 558.0625 C 412.02196 553.60304 408.71104 548.0579 407.71384 540.9644 C 407.59366 538.82617 407.5587 536.70433 407.5586 534.56274 C 407.53994 533.36007 407.53994 533.36007 407.5209 532.1331 C 407.495 530.40246 407.4752 528.6717 407.46097 526.94095 C 407.42026 522.2259 407.32875 517.51176 407.2422 512.79736 C 407.22525 511.8207 407.2083 510.84404 407.19087 509.8378 C 407.0013 499.63145 406.55615 489.4416 406.0625 479.2461 C 406.0197 478.34977 405.97694 477.45344 405.93286 476.52996 C 405.67243 471.07746 405.40546 465.6253 405.1354 460.1733 C 404.7294 451.9687 404.3311 443.76377 403.9375 435.5586 C 403.8954 434.68425 403.8533 433.8099 403.8099 432.90907 C 402.9975 415.94477 402.43283 398.978 402 382 C 396.3804 394.1522 391.4544 406.44783 386.9055 419.0377 C 385.7717 422.1754 384.63006 425.31016 383.48657 428.44434 C 381.84125 432.95505 380.19856 437.4667 378.5576 441.979 C 312.2116 624.26976 312.2116 624.26976 272.34375 643.2656 C 262.29505 647.5636 250.47817 649.0067 240.07422 645.0469 C 235.69126 642.8348 232.0291 640.0929 229.83984 635.6406 C 228.38545 631.0677 228.22186 626.7298 229 622 C 230.9978 618.23825 233.5952 615.8195 237.25 613.6875 C 240 613 240 613 242.1836 612.66016 C 253.47395 610.8107 261.81216 604.7879 269 596 C 272.6792 590.8792 275.85558 585.4593 279 580 C 279.3603 579.38786 279.7206 578.7757 280.0918 578.145 C 306.24503 533.32655 321.0176 479.6739 338.8167 431.12456 C 370.84774 343.7674 370.84774 343.7674 389.70313 334.91016 C 402.83597 329.70616 419.47393 332.65578 431.5 339.25 Z" fill="url(#logoGrad)"/>
    <path d="M 763 333 C 768.0149 335.14757 772.4859 337.97313 777 341 C 777.9685 341.64147 777.9685 341.64147 778.9565 342.2959 C 780.9011 343.5955 782.8292 344.91556 784.75 346.25 C 785.3466 346.6617 785.9432 347.0734 786.5579 347.49756 C 789.6801 349.74276 791.5408 351.45675 793 355 C 794.4191 364.075 789.9735 369.96507 785.1875 377.25 C 784.4402 378.41808 783.6947 379.58734 782.9512 380.7578 C 781.5818 382.90924 780.2005 385.0509 778.8093 387.18848 C 777.1523 389.76338 775.5595 392.36516 774 395 C 770.9829 394.37626 768.7089 393.39707 766.0781 391.8047 C 765.3108 391.3429 764.5435 390.88107 763.7529 390.40527 C 762.927 389.9003 762.101 389.3953 761.25 388.875 C 760.3905 388.35454 759.531 387.8341 758.6455 387.29785 C 747.6958 380.64214 736.84536 373.824 726 367 C 727.1425 363.20993 728.3002 360.1819 730.72266 357.04688 C 731.2572 356.3495 731.7918 355.6521 732.3425 354.9336 C 732.9101 354.213 733.4777 353.49242 734.0625 352.75 C 734.6423 352.00363 735.2222 351.25727 735.8196 350.4883 C 751.0435 331.06227 751.0435 331.06227 763 333 Z" fill="url(#logoGrad)"/>
    <path d="M 622 556 C 626.5137 556.56003 629.48555 558.3137 633.25 560.8125 C 634.307 561.4996 635.3641 562.18664 636.4531 562.8945 C 639 565 639 565 640.03516 567.02344 C 639.9714 570.6085 637.5644 572.4102 635.21875 574.91406 C 628.6829 581.0587 621.0979 585.2612 613 589 C 612.7491 582.8746 613.54705 577.8082 615.25 571.9375 C 615.45496 571.1737 615.6599 570.40996 615.8711 569.62305 C 617.29435 564.5813 619.2344 560.44977 622 556 Z" fill="#e2e8f0"/>
  </g>
</svg>
